<svg width="1440" height="1024" viewBox="0 0 1440 1024" fill="none" xmlns="http://www.w3.org/2000/svg">
<g clip-path="url(#clip0_46_2)">
<rect width="1440" height="1024" fill="#FAFAF6"/>
<g filter="url(#filter0_f_46_2)">
<path d="M-93.8362 711.94C-96.8167 723.554 -99.505 735.399 -100.668 741.838C-102.269 745.591 -102.917 747.32 -103.797 749.07C-104.957 751.379 -106.473 753.654 -108.794 754.791C-119.524 754.366 -128.637 748.207 -135.975 739.81C-144.017 730.608 -151.974 720.628 -155.873 708.022C-159.319 696.879 -163.572 669.723 -172.726 647.123C-177.701 634.842 -181.371 621.551 -186.891 589.647C-190.751 567.337 -195.987 543.058 -197.219 528.794C-198.379 515.364 -200.332 492.423 -201.814 471.341C-202.975 454.844 -204.577 413.41 -202.573 390.176C-201.412 376.723 -197.432 357.036 -193.761 336.549C-190.659 319.236 -184.092 299.893 -176.517 262.22C-173.059 245.022 -165.51 218.912 -158.906 197.931C-154.678 184.502 -148.683 161.485 -138.985 133.195C-133.999 118.651 -121.122 82.885 -103.728 48.1474C-91.8602 24.4471 -86.6736 10.9584 -79.6252 0.344711C-72.7437 -10.0177 -65.9589 -20.2666 -59.716 -30.2945C-52.8001 -41.4037 -33.132 -67.7436 -12.5911 -91.1938C0.873108 -106.565 15.7852 -123.881 27.9969 -132.919C39.8873 -141.719 47.8938 -151.047 82.8075 -173.53C98.8451 -183.858 111.808 -196.555 137.744 -206.123C177.172 -220.667 208.353 -231.766 220.276 -233.993C242.908 -238.221 267.178 -246.302 323.567 -247.388C362.937 -248.147 434.211 -248.147 495.236 -244.241C556.262 -240.335 605.547 -232.752 647.376 -223.102C689.204 -213.452 722.961 -203.023 745.888 -192.877C782.099 -176.85 812.894 -160.735 829.89 -148.543C844.848 -137.813 858.532 -128.51 869.697 -115.227C877.75 -105.646 891.548 -89.8759 900.324 -75.7881C906.057 -66.586 909.961 -57.1881 914.868 -43.5979C919.843 -29.8235 922.509 17.924 919.441 48.2968C918.281 59.785 916.504 80.7585 905.632 106.14C899.899 119.524 895.033 130.122 889.56 144.029C885.332 154.77 879.728 166.461 870.018 186.547C864.653 197.644 860.568 207.101 854.704 216.405C846.226 229.857 831.849 247.665 818.298 264.678C806.431 279.579 789.379 294.667 776.573 304.083C761.902 314.871 732.704 332.877 719.131 340.455C706.023 347.773 690.152 359.721 662.379 366.889C638.702 373.001 625.271 377.985 605.374 380.652C588.062 382.973 565.327 388.944 546.773 390.222C529.931 391.383 491.297 393.79 464.069 397.885C456.429 399.034 424.277 398.761 381.227 404.02C353.012 407.466 336.585 411.598 320.454 412.82C300.12 414.359 278.452 417.487 264.575 420.861C250.306 424.331 222.291 430.533 200.987 438.875C181.331 446.572 150.069 457.169 132.069 466.447C120.167 472.582 105.191 477.997 93.3767 485.988C78.0743 496.339 68.9067 502.428 59.7046 509.723C50.5025 517.018 36.7388 527.752 23.2867 538.857C1.42455 556.906 -14.7396 572.764 -22.6204 581.72C-33.8215 594.449 -52.1448 614.26 -58.234 625.778C-65.1155 638.794 -71.6989 647.121 -77.3735 663.31C-82.7615 678.681 -89.9197 696.678 -93.8362 711.94Z" fill="#EDDEC5" fill-opacity="0.58"/>
</g>
<g filter="url(#filter1_f_46_2)">
<path d="M714.699 -110.356C717.791 -151.385 716.818 -218.45 715.797 -246.426C714.033 -246.013 712.539 -245.601 710.876 -245.187C706.573 -244.115 701.294 -243.06 626.32 -242.532C551.346 -242.004 410.932 -242.004 322.777 -239.285C234.623 -236.565 199.713 -231.679 174.749 -227.015C134.935 -219.577 103.354 -212.242 69.7503 -198.702C31.4395 -183.266 1.11415 -165.288 -18.0525 -151.818C-43.1345 -134.19 -65.6455 -110.141 -81.9891 -88.3609C-89.9712 -77.7235 -113.379 -44.407 -139.159 14.9102C-151.972 44.3911 -162.408 73.7177 -166.769 93.0833C-176.35 135.633 -184.254 158.491 -188.587 201.745C-191.259 228.411 -195.297 249.598 -196.042 308.519C-196.569 350.301 -197.914 425.3 -196.026 464.914C-193.37 520.628 -193.033 546.809 -186.412 561.594C-179.486 577.063 -166.932 594.823 -134.105 639.496C-116.461 663.506 -92.8747 693.407 -64.7932 688.428C-55.7714 686.828 -49.0966 685.248 -42.4146 682.013C-25.8586 673.999 -8.21826 666.78 5.02992 659.619C17.8428 652.692 33.7369 661.194 52.02 659.619C75.3675 657.607 88.6364 655.319 110.88 647.946C133.264 640.527 165.38 621.946 165.38 621.946C165.38 621.946 200.747 599.178 216.195 577.958C235.362 551.63 244.663 524.103 244.396 499.481C243.836 447.878 241.117 426.655 239.053 409.503C236.35 387.028 230.775 363.481 225.713 344.463C221.442 328.419 215.727 309.612 212.372 291.116C206.533 258.931 204.316 210.221 223.121 187.685C231.103 178.119 242.548 168.764 255.658 162.667C270.582 155.724 282.444 146.474 300.463 142.415C321.77 137.617 338.457 132.049 380.843 120.981C452.266 102.329 508.397 87.5007 508.397 87.5007C508.397 87.5007 534 81.6115 549.475 75.2156C588.348 59.1485 608.516 41.3322 635.294 10.1273C651.354 -8.58813 670.09 -28.6282 678.979 -43.6997C689.745 -61.9513 713.173 -90.119 714.699 -110.356Z" fill="#F7E4E4"/>
</g>
<g filter="url(#filter2_f_46_2)">
<path d="M1521.09 381.008C1532.03 376.273 1540.86 373.276 1545.63 372.345C1546.54 372.403 1547.43 372.487 1548.27 372.611C1553.24 373.759 1557.86 375.299 1562.44 376.827C1570.86 381.457 1575.65 390.554 1578.5 399.826C1581.57 409.81 1585.01 420.33 1589.61 431.614C1593.84 441.977 1601.25 454.321 1608.02 467.676C1621.41 494.042 1630.2 510.364 1655.99 566.314L1656.4 567.211C1665.59 587.138 1676.76 611.377 1681.56 626.674C1688.02 647.226 1692.25 657.103 1692.61 678.497C1693.37 723.279 1691.83 757.536 1691.45 769.806C1691.07 782.03 1691.63 820.306 1672.18 876.199C1653.44 930.044 1642.03 963.635 1631.21 983.247C1612.84 1016.53 1596.87 1044.06 1583.35 1058.2C1566.91 1075.39 1554.04 1087.8 1546.26 1093.34C1531.71 1103.7 1508.68 1126.1 1480.77 1134.29C1465.08 1138.9 1445.52 1149.1 1408.43 1150.37C1386.22 1151.12 1346.77 1151.71 1325.13 1150.73C1299.67 1149.59 1292.49 1149.87 1271.8 1144.14C1222.03 1130.35 1188.21 1118.81 1181.7 1116.64C1172.52 1113.58 1162.99 1108.08 1154.53 1104C1144.19 1099.01 1121.57 1081.98 1113.96 1064.16C1108.2 1050.67 1103.01 1032.47 1103.25 1011.59C1103.66 976.457 1104.86 965.433 1107.86 953.481C1111.33 939.649 1115.75 925.891 1118.97 914.03C1122.82 899.853 1126.44 887.247 1131.63 875.716C1140.42 856.198 1145.24 844.671 1151.53 836.312C1159.63 825.547 1169.82 812.311 1179.5 806.833C1191.01 800.319 1202.73 795.866 1210.9 789.6C1220.88 781.938 1233.63 777.12 1245.37 771.61C1257.64 765.854 1268.66 761.817 1277.53 755.905C1286.73 749.771 1296.96 746.623 1305.1 739.431C1315.09 730.608 1329.06 724.19 1330.74 714.536C1334.94 690.491 1332.89 651.103 1330.33 640.23C1327.26 627.214 1323.82 618.161 1321.14 608.453C1318.07 597.344 1315.88 565.02 1318.47 541.419C1320.42 523.773 1325.19 507.751 1332.66 496.247C1341.14 483.197 1353.42 469.545 1362.93 461.024C1374.04 451.075 1384.26 444.193 1402.78 433.073C1416.18 425.02 1428.06 416.562 1473.68 397.827C1495.08 389.039 1509.4 386.074 1521.09 381.008Z" fill="#E3FBDE"/>
</g>
<g filter="url(#filter3_f_46_2)">
<path d="M-36.63 902.155C-41.8778 896.51 -46.4517 890.966 -50.0149 886.145C-54.5668 886.219 -58.6752 886.409 -61.7823 886.898C-66.8717 887.7 -69.2044 889.255 -71.5723 890.433C-80.2078 895.569 -90.1708 904.565 -89.9978 920.015C-89.5854 956.83 -87.6522 974.082 -86.0629 989.817C-84.8731 1001.6 -82.974 1012.97 -78.5938 1024.76C-74.6472 1035.39 -70.7747 1046.88 -64.0443 1056.18C-55.7976 1067.57 -52.1615 1077.67 -45.5953 1086.41C-38.5031 1095.85 -32.3146 1106.66 -23.5884 1115.08C-11.7839 1126.48 2.83006 1138.11 28.0594 1148.92C63.7793 1164.22 93.6725 1174.65 106.438 1178.29C125.677 1183.78 142.663 1190.61 178.703 1193.98C195.561 1195.56 214.371 1198.54 258.943 1199.08C290.94 1199.47 350.103 1201.17 380.782 1199.07C421.002 1196.31 434.995 1193.99 451.609 1192.79C468.079 1191.6 488.62 1187.23 504.211 1182.97C521.564 1178.22 542.401 1173.3 553.291 1168.43C564.683 1163.33 576.233 1160 589.046 1153.89C605.539 1146.03 617.562 1141.47 632.235 1131.11C645.595 1121.67 659.234 1115.27 668.744 1106.76C680.136 1096.55 687.775 1088.53 699.422 1076.47C721.574 1053.52 727.942 1044.1 734.552 1034.33L734.706 1034.1C742.953 1021.91 750.613 1011.92 752.354 1001.52C753.932 992.079 761.601 982.445 757.443 945.697C755.487 928.415 756.951 913.867 752.731 897.042C749.974 886.05 746.84 876.649 743.695 867.212C740.549 857.776 737.071 846.961 732.302 836.582C727.967 827.145 723.988 817.292 717.765 808.308C710.673 798.07 704.486 785.632 696.159 778.078C687.912 770.597 680.066 762.774 670.629 756.483C661.193 750.192 651.253 747.68 642.355 744.325C632.918 740.767 604.57 737.623 585.406 739.624C574.013 740.814 564.199 742.909 555.176 747.094C544.938 751.841 533.411 758.725 522.578 765.955C511.951 773.047 501.512 781.635 489.591 789.128C478.964 795.808 468.548 804.442 457.37 811.524C441.265 821.726 428.096 828.595 416.148 837.041C393.152 853.299 348.418 882.584 324.563 895.204C291.27 912.817 282.575 919.401 244.016 932.891C220.513 941.114 197.806 950.216 163.281 950.904C104.824 952.071 67.5776 950.732 62.7308 949.703C51.692 947.358 39.4392 943.51 29.7441 940.278C20.3075 937.133 9.25873 932.535 -1.28703 926.129C-14.2814 918.236 -27.8743 911.573 -36.63 902.155Z" fill="#CEEDF0"/>
</g>
</g>
<defs>
<filter id="filter0_f_46_2" x="-436.125" y="-480.381" width="1589.47" height="1467.77" filterUnits="userSpaceOnUse" color-interpolation-filters="sRGB">
<feFlood flood-opacity="0" result="BackgroundImageFix"/>
<feBlend mode="normal" in="SourceGraphic" in2="BackgroundImageFix" result="shape"/>
<feGaussianBlur stdDeviation="116.3" result="effect1_foregroundBlur_46_2"/>
</filter>
<filter id="filter1_f_46_2" x="-471.2" y="-520.626" width="1462.19" height="1483.8" filterUnits="userSpaceOnUse" color-interpolation-filters="sRGB">
<feFlood flood-opacity="0" result="BackgroundImageFix"/>
<feBlend mode="normal" in="SourceGraphic" in2="BackgroundImageFix" result="shape"/>
<feGaussianBlur stdDeviation="137.1" result="effect1_foregroundBlur_46_2"/>
</filter>
<filter id="filter2_f_46_2" x="870.645" y="139.745" width="1054.77" height="1244.1" filterUnits="userSpaceOnUse" color-interpolation-filters="sRGB">
<feFlood flood-opacity="0" result="BackgroundImageFix"/>
<feBlend mode="normal" in="SourceGraphic" in2="BackgroundImageFix" result="shape"/>
<feGaussianBlur stdDeviation="116.3" result="effect1_foregroundBlur_46_2"/>
</filter>
<filter id="filter3_f_46_2" x="-322.6" y="506.4" width="1313.86" height="926.301" filterUnits="userSpaceOnUse" color-interpolation-filters="sRGB">
<feFlood flood-opacity="0" result="BackgroundImageFix"/>
<feBlend mode="normal" in="SourceGraphic" in2="BackgroundImageFix" result="shape"/>
<feGaussianBlur stdDeviation="116.3" result="effect1_foregroundBlur_46_2"/>
</filter>
<clipPath id="clip0_46_2">
<rect width="1440" height="1024" fill="white"/>
</clipPath>
</defs>
</svg>
