<svg width="1440" height="1024" viewBox="0 0 1440 1024" fill="none" xmlns="http://www.w3.org/2000/svg">
<g clip-path="url(#clip0_46_8)">
<rect width="1440" height="1024" fill="#0F1E38"/>
<g filter="url(#filter0_f_46_8)">
<path d="M-38.7518 552.827C-54.9845 549.603 -67.9612 547.946 -74.854 547.837C-76.1315 548.085 -77.3673 548.359 -78.5482 548.67C-85.3795 550.98 -91.6601 553.666 -97.8938 556.333C-109.05 563.317 -114.349 574.684 -116.873 585.861C-119.592 597.895 -122.747 610.618 -127.426 624.449C-131.724 637.15 -140.197 652.754 -147.618 669.39C-162.266 702.232 -172.057 722.666 -199.441 791.833L-199.879 792.94C-209.633 817.576 -221.497 847.541 -225.811 866.002C-231.608 890.806 -235.991 902.952 -233.034 927.496C-226.843 978.871 -219.112 1017.75 -216.584 1031.71C-214.066 1045.61 -208.638 1089.51 -172.071 1149.54C-136.843 1207.37 -115.268 1243.51 -96.7815 1263.77C-65.4089 1298.16 -38.3587 1326.44 -16.9514 1339.91C9.08367 1356.28 29.2932 1367.9 41.1853 1372.67C63.4477 1381.6 99.6437 1402.61 140.437 1406.39C163.374 1408.51 192.678 1416.25 245.335 1410.27C276.859 1406.68 332.731 1399.44 363.184 1393.99C398.995 1387.57 409.19 1386.46 437.521 1375.75C505.656 1350 551.609 1330.01 560.466 1326.23C572.95 1320.89 585.526 1312.69 596.834 1306.32C610.646 1298.55 639.867 1274.53 647.732 1252.62C653.683 1236.04 658.07 1214.18 654.346 1190.34C648.08 1150.24 644.586 1137.87 638.408 1124.8C631.259 1109.67 622.778 1094.82 616.301 1081.9C608.56 1066.46 601.397 1052.76 592.186 1040.61C576.593 1020.05 567.908 1007.83 557.659 999.53C544.461 988.84 527.902 975.744 513.323 971.419C495.99 966.276 478.692 963.533 466.132 958.002C450.773 951.239 431.967 948.284 414.465 944.336C396.182 940.212 379.947 937.804 366.45 932.819C352.443 927.647 337.464 926.098 324.791 919.503C309.244 911.413 288.442 906.874 284.496 896.168C274.667 869.505 271.17 824.041 273.029 811.09C275.255 795.587 278.655 784.542 280.871 772.9C283.407 759.578 281.268 722.165 273.768 695.689C268.161 675.894 258.813 658.524 246.38 646.864C232.275 633.636 212.698 620.482 197.863 612.643C180.541 603.491 164.972 597.667 136.994 588.66C116.731 582.136 98.5691 574.842 31.0169 562.559C-0.671907 556.798 -21.3894 556.275 -38.7518 552.827Z" fill="#05204A"/>
</g>
<g filter="url(#filter1_f_46_8)">
<path d="M1357.26 20.9292C1390.48 -3.41088 1448.38 -37.2801 1472.9 -50.8041C1473.6 -48.8579 1474.14 -47.1778 1474.77 -45.33C1476.42 -40.5496 1478.67 -34.8196 1522.94 39.0515C1567.2 112.923 1650.95 250.758 1701.2 338.706C1751.46 426.653 1768.1 463.459 1779.01 490.386C1796.4 533.332 1808.96 568.142 1817.43 608.158C1827.09 653.781 1829.81 692.884 1829.73 718.694C1829.63 752.468 1822.5 787.053 1813.63 814.406C1809.3 827.765 1794.79 868.043 1759.48 924.151C1741.92 952.037 1723.08 977.508 1709.13 991.845C1678.49 1023.34 1663.66 1042.97 1629.28 1069.69C1608.09 1086.15 1592.39 1101.12 1542.48 1132.45C1507.09 1154.66 1443.79 1194.92 1408.81 1213.64C1359.61 1239.96 1337.04 1253.23 1320.45 1254.4C1303.1 1255.64 1280.44 1252.54 1222.68 1243.51C1191.64 1238.66 1152.01 1231.03 1139.52 1200.88C1135.51 1191.19 1132.88 1183.82 1131.66 1175.58C1128.63 1155.17 1124.28 1134.1 1122.5 1117.38C1120.77 1101.2 1104.03 1090.02 1094.47 1071.25C1082.26 1047.29 1076.31 1033.08 1069.34 1007.41C1062.33 981.586 1059.05 940.411 1059.05 940.411C1059.05 940.411 1057.42 893.871 1066.34 867.689C1077.41 835.203 1095.39 811.779 1116.59 799.256C1161.02 773.01 1180.78 764.66 1196.67 757.779C1217.49 748.763 1240.94 742.008 1260.21 737.102C1276.47 732.964 1295.95 728.808 1313.76 722.497C1344.75 711.517 1387.7 688.4 1395.74 658.238C1399.16 645.435 1400.33 629.343 1397.72 613.309C1394.75 595.053 1395.58 578.606 1388.3 558.811C1379.7 535.403 1374.5 516.132 1358.68 468.776C1332.02 388.98 1311.22 326.181 1311.22 326.181C1311.22 326.181 1300.98 297.989 1297.22 279.478C1287.76 232.975 1290.96 203.926 1301.66 161.437C1308.07 135.954 1314.02 107.157 1321.6 90.6042C1330.78 70.5592 1340.88 32.9346 1357.26 20.9292Z" fill="#01277A" fill-opacity="0.48"/>
</g>
<g filter="url(#filter2_f_46_8)">
<path d="M91.2935 -47.0235C90.8378 -47.605 90.3866 -48.1749 89.9405 -48.7329C89.9408 -52.5543 89.9492 -56.239 90.2227 -58.9178C92.165 -66.662 95.4851 -73.2856 98.8136 -79.6519C103.785 -84.9226 109.012 -90.6749 114.866 -96.8087C120.95 -103.183 126.204 -109.025 133.127 -114.513C139.776 -119.784 147.335 -126.667 154.99 -131.67C163.016 -136.916 172.28 -140.433 184.049 -146.328C192.897 -150.761 201.214 -153.781 213.939 -159.891C228.39 -166.83 244.291 -174.336 275.676 -182.858C291.97 -187.282 311.635 -193.051 330.45 -196.13C350.636 -199.434 364.828 -203.64 382.46 -204.14C392.121 -204.414 402.153 -206.782 455.809 -205.211C504.557 -203.783 594.4 -199.948 652.302 -195.209C710.205 -190.469 735.405 -184.991 749.698 -181.405C763.991 -177.82 767.282 -176.185 772.59 -174.226C798.919 -164.506 819.157 -156.585 841.458 -145.448C860.939 -135.72 893.529 -118.37 907.562 -109.765C921.166 -101.424 954.449 -80.9269 965.091 -54.6846C969.241 -44.4504 979.632 -27.0768 979.459 -8.9583C979.168 21.3876 981.061 36.58 976.122 49.3347C970.835 62.9887 959.511 90.9844 947.884 104.117C939.294 113.82 930.215 122.366 923.266 129.001C917.746 134.272 911.376 142.377 898.597 152.001C881.756 164.684 874.824 168.622 867.919 173.275C856.822 180.753 847.246 185.846 838.57 189.601C821.961 196.79 803.783 202.099 790.727 207.572C782.152 211.166 774.264 211.609 765.834 213.93C757.783 216.146 747.69 222.758 696.302 218.619C679.195 217.241 665.356 217.887 648.161 211.116C617.176 198.914 598.41 189.759 585.145 180.413C572.952 171.822 562.649 165.835 554.442 160.218C544.764 153.595 537.657 148.179 528.163 142.796C519.863 138.09 513.246 134.774 506.591 130.902C499.942 127.034 492.137 121.282 478.079 122.9C466.11 124.278 451.816 125.386 443.5 127.607C435.2 129.823 428.718 132.535 421.645 134.247C412.49 136.463 403.708 138.799 395.358 140.887C386.494 143.103 377.491 148.97 344.129 145.577C330.583 144.199 319.477 143.711 310.978 142.257C302.926 140.879 293.106 138.286 284.134 135.89C275.834 133.674 267.97 131.711 260.902 127.864C254.253 124.245 247.388 120.233 240.981 115.961C234.333 111.529 227.281 106.474 217.699 97.3769C201.131 81.6478 195.873 75.8675 189.237 69.4713C182.339 62.8227 177.07 55.9438 169.599 48.1644C162.95 41.2419 152.788 33.5512 142.199 20.209C134.729 10.7964 126.658 3.05472 115.912 -12.7266C107.039 -25.7581 98.372 -37.9904 91.2935 -47.0235Z" fill="#037088"/>
</g>
</g>
<defs>
<filter id="filter0_f_46_8" x="-466.583" y="315.237" width="1354.9" height="1329.86" filterUnits="userSpaceOnUse" color-interpolation-filters="sRGB">
<feFlood flood-opacity="0" result="BackgroundImageFix"/>
<feBlend mode="normal" in="SourceGraphic" in2="BackgroundImageFix" result="shape"/>
<feGaussianBlur stdDeviation="116.3" result="effect1_foregroundBlur_46_8"/>
</filter>
<filter id="filter1_f_46_8" x="784.737" y="-325.004" width="1319.2" height="1853.87" filterUnits="userSpaceOnUse" color-interpolation-filters="sRGB">
<feFlood flood-opacity="0" result="BackgroundImageFix"/>
<feBlend mode="normal" in="SourceGraphic" in2="BackgroundImageFix" result="shape"/>
<feGaussianBlur stdDeviation="137.1" result="effect1_foregroundBlur_46_8"/>
</filter>
<filter id="filter2_f_46_8" x="-143.559" y="-439.245" width="1356.64" height="892.698" filterUnits="userSpaceOnUse" color-interpolation-filters="sRGB">
<feFlood flood-opacity="0" result="BackgroundImageFix"/>
<feBlend mode="normal" in="SourceGraphic" in2="BackgroundImageFix" result="shape"/>
<feGaussianBlur stdDeviation="116.75" result="effect1_foregroundBlur_46_8"/>
</filter>
<clipPath id="clip0_46_8">
<rect width="1440" height="1024" fill="white"/>
</clipPath>
</defs>
</svg>
